<svg width="39" height="43" viewBox="0 0 39 43" fill="none" xmlns="http://www.w3.org/2000/svg">
<path d="M19.125 0.174133C21.4026 0.174133 23.5882 1.20794 25.2002 3.05011C26.8124 4.8926 27.7188 7.39307 27.7188 10.0003V10.4603H35.625C36.3114 10.4603 36.9712 10.7711 37.458 11.3275C37.945 11.884 38.2188 12.6404 38.2188 13.429V39.1429C38.2188 39.9314 37.9448 40.687 37.458 41.2435C36.9712 41.7999 36.3115 42.1116 35.625 42.1116H2.625C1.93854 42.1116 1.27884 41.7999 0.791992 41.2435C0.305181 40.687 0.03125 39.9314 0.03125 39.1429V13.429C0.03125 12.6404 0.305031 11.884 0.791992 11.3275C1.27883 10.7711 1.93856 10.4603 2.625 10.4603H10.5312V10.0003C10.5312 7.39307 11.4376 4.8926 13.0498 3.05011C14.6618 1.20793 16.8474 0.174133 19.125 0.174133ZM2.625 12.9691C2.51581 12.9691 2.4117 13.0182 2.33594 13.1048C2.26034 13.1912 2.21875 13.3084 2.21875 13.429V39.1429C2.21875 39.2634 2.26051 39.3797 2.33594 39.4661C2.4117 39.5527 2.51581 39.6028 2.625 39.6028H35.625C35.7342 39.6028 35.8383 39.5527 35.9141 39.4661C35.9895 39.3797 36.0312 39.2634 36.0312 39.1429V13.429C36.0312 13.3084 35.9897 13.1912 35.9141 13.1048C35.8383 13.0182 35.7342 12.9691 35.625 12.9691H27.7188V16.8568C27.7188 17.1905 27.6029 17.5104 27.3975 17.7454C27.1919 17.9803 26.9136 18.1116 26.625 18.1116C26.3364 18.1116 26.0581 17.9803 25.8525 17.7454C25.6471 17.5104 25.5312 17.1905 25.5312 16.8568V12.9691H12.7188V16.8568C12.7188 17.1905 12.6029 17.5104 12.3975 17.7454C12.1919 17.9803 11.9136 18.1116 11.625 18.1116C11.3364 18.1116 11.0581 17.9803 10.8525 17.7454C10.6471 17.5104 10.5312 17.1905 10.5312 16.8568V12.9691H2.625ZM19.125 2.68292C17.4246 2.68292 15.7947 3.455 14.5938 4.82745C13.3929 6.19987 12.7188 8.06097 12.7188 10.0003V10.4603H25.5312V10.0003C25.5312 8.06097 24.8571 6.19987 23.6562 4.82745C22.4553 3.455 20.8254 2.68292 19.125 2.68292Z" fill="#653935" stroke="#653935" stroke-width="0.0625"/>
</svg>
