<svg width="39" height="39" viewBox="0 0 39 39" fill="none" xmlns="http://www.w3.org/2000/svg">
<path d="M3.67523 4.19915C4.52303 3.23019 5.52953 2.46158 6.63726 1.93718C7.74498 1.41279 8.93224 1.14288 10.1312 1.14288C11.3302 1.14288 12.5175 1.41279 13.6252 1.93718C14.7329 2.46158 15.7394 3.23019 16.5872 4.19915L19.5012 7.52943L22.4152 4.19915C24.1277 2.2423 26.4503 1.14308 28.8719 1.1433C31.2936 1.14351 33.616 2.24314 35.3282 4.20029C37.0405 6.15744 38.0023 8.81177 38.0021 11.5794C38.0019 14.347 37.0397 17.0012 35.3272 18.958L32.4132 22.286L32.4392 22.3157L19.5272 37.0746L19.5012 37.0449L19.4752 37.0746L6.56323 22.3157L6.58923 22.286L3.67523 18.958C2.8271 17.989 2.1543 16.8386 1.69528 15.5724C1.23626 14.3063 1 12.9491 1 11.5786C1 10.208 1.23626 8.85089 1.69528 7.58471C2.1543 6.31853 2.8271 5.16811 3.67523 4.19915Z" stroke="#653935" stroke-width="2" stroke-linejoin="round"/>
</svg>
