<svg width="32" height="32" viewBox="0 0 32 32" fill="none" xmlns="http://www.w3.org/2000/svg">
<g clip-path="url(#clip0_2725_102)">
<path d="M27.6248 9.38408C28.1383 10.7217 27.8147 12.301 26.7541 13.8031C25.6958 15.3019 23.9336 16.6714 21.7081 17.5257C19.4826 18.38 17.2566 18.5413 15.4673 18.1357C13.674 17.7291 12.3768 16.772 11.8633 15.4343C11.35 14.0968 11.6738 12.5182 12.7344 11.0162C13.7927 9.51745 15.5549 8.14797 17.7804 7.29366C20.0059 6.4394 22.2319 6.27797 24.0212 6.68363C25.8142 7.09018 27.1113 8.04665 27.6248 9.38408Z" stroke="#653935"/>
<path d="M7.2798 9.82296C8.03296 9.27253 9.01315 9.01078 10.0198 9.17966C10.8838 9.32474 11.7383 9.78297 12.4658 10.5962C14.3074 9.01458 16.637 9.32601 18.118 10.5057C18.9096 11.1364 19.4798 12.0336 19.5742 13.0347C19.6488 13.8285 19.4177 14.6356 18.8385 15.3768C19.5673 15.7269 20.1031 16.3283 20.4404 17.0197C20.8917 17.9451 21.0039 19.0514 20.7854 20.0214C20.5665 20.9923 19.9985 21.8899 19.0247 22.2976C18.2429 22.6249 17.278 22.6024 16.1602 22.1579C16.2483 23.1282 16.0177 23.9511 15.5683 24.5833C14.9835 25.4061 14.0564 25.8667 13.0995 25.9195C12.1384 25.9724 11.1245 25.6142 10.3969 24.7761C9.85365 24.1503 9.50235 23.2953 9.42186 22.2245C8.73943 22.622 8.01087 22.6967 7.31021 22.4966C6.32886 22.2161 5.5055 21.4259 5.00375 20.4931C4.49935 19.5551 4.28195 18.4058 4.58332 17.3408C4.84757 16.4073 5.49751 15.5853 6.60381 15.0451C5.9957 14.0782 5.77664 13.118 5.8725 12.2473C5.98509 11.2251 6.52584 10.3741 7.2798 9.82296ZM15.1451 17.3882C14.8377 16.0468 13.586 14.6769 12.5142 14.9107C11.5762 15.1157 9.85627 16.2965 10.0176 17.234C10.3325 18.8422 11.0452 19.8048 12.6495 19.7115C13.9913 19.4854 15.5755 19.2661 15.1451 17.3882Z" fill="#653935"/>
</g>
<defs>
<clipPath id="clip0_2725_102">
<rect width="32" height="32" fill="white"/>
</clipPath>
</defs>
</svg>
