<svg width="52" height="38" viewBox="0 0 52 38" fill="none" xmlns="http://www.w3.org/2000/svg">
<path d="M25.168 25.248L26 25.8027L26.832 25.248L31.7627 21.96L45.0352 36.416C44.698 36.47 44.3524 36.5 44 36.5H8C7.41471 36.5 6.84808 36.4204 6.30859 36.2754L20.207 21.9404L25.168 25.248ZM50.5 30C50.5 32.1025 49.5005 33.9701 47.9521 35.1582L34.2666 20.252L50.5 8.97852V30ZM17.6924 20.2236L3.58789 34.7715C2.30442 33.5841 1.5 31.8864 1.5 30V8.97852L17.6924 20.2236ZM8 1.5H44C47.5899 1.5 50.5 4.41015 50.5 8V8.21973L50 7.5L49.1445 6.26758L31.1445 18.7676L26 22.1973L20.8555 18.7676L2.85547 6.26758L2 7.5L1.5 8.21973V8C1.5 4.41015 4.41015 1.5 8 1.5Z" stroke="#653935" stroke-width="3"/>
</svg>
