<svg width="88" height="172" viewBox="0 0 88 172" fill="none" xmlns="http://www.w3.org/2000/svg">
<path d="M20.5256 159.543C18.0256 159.543 16.5257 159.043 16.5257 153.043C16.5257 147.043 16.5257 105.043 16.5257 99.0426C16.5257 95.674 16.1785 93.812 16.7767 93.0426M20.5256 159.543C20.5256 164.543 22.0256 164.043 24.5256 164.043H46.5257M20.5256 159.543C30.5256 160.043 35.1683 160.802 46.5257 160.543M46.5257 94.0426C38.5256 94.0426 25.6273 94.2631 20.5257 93.0426C18.2883 92.5073 17.244 92.4415 16.7767 93.0426M22.5256 91.0426C19.5256 91.0426 17.5455 91.2201 16.7767 93.0426M63.5256 89.5427C73.5927 90.1998 74.5256 91.0428 76.5256 94.0426" stroke="#653935"/>
<path d="M72.5257 159.557C75.0256 159.557 76.5255 159.06 76.5255 153.097V99.4296C76.5255 93.4666 77.6271 92.2536 72.5256 93.4666C67.424 94.6796 54.5258 94.0427 46.5257 94.0427M72.5257 159.557C72.5257 164.526 71.0257 164.029 68.5257 164.029H46.5257M72.5257 159.557C62.5257 160.054 57.8831 160.801 46.5257 160.543" stroke="#653935"/>
<path d="M11.0257 83.5427C20.0258 89.5427 21.0257 90.0427 26.5258 93.5428H47.0257L50.284 93.5428C53.784 93.5428 63.7511 91.867 65.0258 88.0427C69.0258 76.0427 70.0258 75.5427 72.5257 59.0428M11.0257 83.5427C9.52564 78.5427 73.5257 55.0427 72.5257 59.0428M11.0257 83.5427C14.0256 71.0427 19.5258 64.5427 23.0258 57.5428M72.5257 59.0428C61.0258 53.0427 58.0258 52.5427 46.0257 49.0427M23.0258 57.5428C26.5257 50.5428 41.5257 49.5427 46.0257 49.0427M23.0258 57.5428C20.8574 52.6612 20.0257 50.5427 21.0257 46.0427C25.0256 39.5427 31.0256 38.0427 42.5256 38.0427C45.5256 41.0427 45.0257 43.0427 46.0257 49.0427" stroke="#653935"/>
<path d="M12.4998 37.0428C10.5 23.0428 21.9991 12.0428 40.499 10.5428C42.5429 10.0187 43.5501 9.45285 45 8.04272C46.0921 4.73953 46.7763 3.40882 47.999 1.04276C50.5 0.542738 60.5 4.54272 62 7.04272C63.5 9.54272 55 14.5427 55 14.5427C54.1287 16.2692 53.8237 17.25 53.999 19.0428C56.5 25.5427 49 32.5428 43.5 39.0428M12.4998 37.0428C15.5094 40.9357 17.5563 42.6147 22 44.5428M12.4998 37.0428C12 35.0428 22 41.0428 24.5 42.5428" stroke="#653935"/>
<path d="M74.9585 145.726C75.7318 145.474 76.7674 145.845 77.8614 146.955C78.932 148.042 79.9409 149.734 80.6048 151.777C81.2687 153.82 81.4468 155.782 81.2195 157.291C80.9873 158.832 80.367 159.74 79.5937 159.992C78.8205 160.243 77.7848 159.873 76.6909 158.762C75.6202 157.675 74.6113 155.983 73.9474 153.94C73.2835 151.897 73.1055 149.935 73.3327 148.427C73.565 146.885 74.1852 145.977 74.9585 145.726Z" stroke="#653935"/>
<path d="M80.7891 153.82C83.4154 152.967 84.1415 156.136 84.9948 158.762C85.8482 161.389 87.2781 164.855 84.6518 165.708C82.0256 166.561 79.4192 164.254 77.5789 160.12C75.9431 156.446 78.1629 154.673 80.7891 153.82ZM80.7233 156.996C80.1981 157.167 80.1181 158.369 80.5448 159.683C80.9714 160.996 81.7431 161.922 82.2684 161.751C82.7936 161.58 82.8736 160.378 82.4469 159.064C82.0202 157.751 81.2486 156.825 80.7233 156.996Z" fill="#653935"/>
<path d="M19.2286 157.08C19.4988 157.784 19.3056 158.676 18.6065 159.587C17.9132 160.491 16.768 161.342 15.3271 161.895C13.8864 162.448 12.4665 162.582 11.3466 162.374C10.2171 162.165 9.47653 161.631 9.20632 160.927C8.93638 160.223 9.12981 159.331 9.82882 158.42C10.522 157.516 11.6666 156.666 13.1073 156.112C14.5481 155.559 15.9687 155.426 17.0887 155.633C18.2179 155.843 18.9583 156.376 19.2286 157.08Z" stroke="#653935"/>
<path d="M6.08027 157.491C7.04044 156.82 8.47409 156.763 9.53828 157.783C10.8045 156.835 12.3264 157.002 13.2922 157.711C13.8257 158.103 14.2234 158.688 14.2717 159.372C14.305 159.845 14.1676 160.317 13.8615 160.755C14.2533 160.981 14.5468 161.317 14.7385 161.702C15.0386 162.306 15.0955 163.031 14.923 163.673C14.7495 164.319 14.3284 164.929 13.6301 165.219C13.1307 165.427 12.5445 165.446 11.8918 165.262C11.8743 165.785 11.7038 166.245 11.4172 166.616C10.9861 167.175 10.3284 167.49 9.66914 167.542C9.00712 167.595 8.30221 167.386 7.80097 166.841C7.47462 166.486 7.26134 166.019 7.18671 165.452C6.77042 165.629 6.33908 165.662 5.92402 165.562C5.24003 165.396 4.68171 164.894 4.35078 164.295C4.01805 163.693 3.88254 162.936 4.11933 162.216C4.31022 161.636 4.72633 161.129 5.37812 160.767C5.06937 160.216 4.9635 159.656 5.04121 159.127C5.14283 158.437 5.54692 157.864 6.08027 157.491ZM9.47773 160.658C8.86505 160.8 7.7275 161.55 7.81464 162.117C7.98968 163.09 8.4346 163.663 9.47773 163.577C10.353 163.415 11.3859 163.253 11.1408 162.117C10.9656 161.307 10.1778 160.496 9.47773 160.658Z" fill="#653935"/>
</svg>
